<svg t="1700817990428" class="icon" viewBox="0 0 1024 1024" version="1.1" xmlns="http://www.w3.org/2000/svg" p-id="58316" width="200" height="200"><path d="M341.333333 341.333333v341.333334h341.333334V341.333333H341.333333zM256 256h512v512H256V256z m0-170.666667h85.333333v128H256V85.333333z m0 725.333334h85.333333v128H256v-128zM85.333333 256h128v85.333333H85.333333V256z m0 426.666667h128v85.333333H85.333333v-85.333333zM810.666667 256h128v85.333333h-128V256z m0 426.666667h128v85.333333h-128v-85.333333zM682.666667 85.333333h85.333333v128h-85.333333V85.333333z m0 725.333334h85.333333v128h-85.333333v-128z" p-id="58317" fill="#555555"></path></svg>