<svg t="1700815827420" class="icon" viewBox="0 0 1024 1024" version="1.1" xmlns="http://www.w3.org/2000/svg" p-id="7291" width="200" height="200"><path d="M870.912 128.8192H151.8592c-13.2096 0-23.9616 10.752-23.9616 23.9616v719.0528c0 13.2096 10.752 23.9616 23.9616 23.9616h719.0528c13.2096 0 23.9616-10.752 23.9616-23.9616V152.7808c0-13.2096-10.8544-23.9616-23.9616-23.9616zM415.4368 608.1536V416.4608H607.232v191.6928H415.4368zM607.232 656.0768V847.872H415.4368V656.0768H607.232z m-431.4112-239.616h191.6928v191.6928H175.8208V416.4608z m239.616-47.9232V176.7424H607.232v191.6928H415.4368z m239.7184 47.9232H846.848v191.6928H655.1552V416.4608z m191.7952-47.9232H655.1552V176.7424H846.848v191.7952zM367.5136 176.7424v191.6928H175.8208V176.7424h191.6928zM175.8208 656.0768h191.6928V847.872H175.8208V656.0768zM655.1552 847.872V656.0768H846.848V847.872H655.1552z m0 0" fill="#555555" p-id="7292"></path></svg>