<svg t="1701068145789" class="icon" viewBox="0 0 1024 1024" version="1.1" xmlns="http://www.w3.org/2000/svg" p-id="61120" width="200" height="200"><path d="M942.08 567.296L565.248 167.936C552.96 151.552 532.48 143.36 512 143.36s-38.912 8.192-53.248 22.528L83.968 567.296c-24.576 26.624-18.432 49.152-14.336 57.344 4.096 8.192 16.384 28.672 51.2 28.672h163.84v294.912c0 40.96 34.816 75.776 75.776 75.776h301.056c40.96 0 75.776-32.768 75.776-75.776V655.36h165.888c34.816 0 47.104-20.48 51.2-28.672 6.144-10.24 12.288-32.768-12.288-59.392z m-194.56 20.48c-40.96 0-75.776 32.768-75.776 75.776v294.912H354.304V663.552c0-40.96-34.816-75.776-75.776-75.776h-122.88L512 206.848l356.352 380.928h-120.832zM108.544 65.536h808.96c18.432 0 32.768-14.336 32.768-32.768 0-18.432-14.336-32.768-32.768-32.768H108.544c-18.432 0-34.816 14.336-34.816 32.768 0 18.432 16.384 32.768 34.816 32.768z" p-id="61121" fill="#555555"></path></svg>